HIERARCHY
ROOT Root
{
	OFFSET 0.00000 0.00000 0.00000
	CHANNELS 6 Xposition Yposition Zposition Zrotation Xrotation Yrotation
	JOINT Hips
	{
		OFFSET 0 0 0	
		CHANNELS 3 Zrotation Xrotation Yrotation
		JOINT Spine
		{
			OFFSET 0 4 0	
			CHANNELS 3 Zrotation Xrotation Yrotation
			JOINT Spine1
			{
				OFFSET 0 19.4 0	
				CHANNELS 3 Zrotation Xrotation Yrotation
				JOINT Spine2
				{
					OFFSET 0 16.6 0	
					CHANNELS 3 Zrotation Xrotation Yrotation
					JOINT LeftCollar
					{
						OFFSET 0 10 0	
						CHANNELS 3 Zrotation Xrotation Yrotation
						JOINT LeftArm
						{
							OFFSET 15.6 -2 3	
							CHANNELS 3 Zrotation Xrotation Yrotation
							JOINT LeftForeArm
							{
								OFFSET 3.5 -27 -1	
								CHANNELS 3 Zrotation Xrotation Yrotation
								JOINT LeftHand
								{
									OFFSET 1 -27 1	
									CHANNELS 3 Zrotation Xrotation Yrotation
									End Site
									{
										OFFSET 0 -15 0
									}
								}
							}
						}
					}
					JOINT RightCollar
					{
						OFFSET 0 10 0	
						CHANNELS 3 Zrotation Xrotation Yrotation
						JOINT RightArm
						{
							OFFSET -15.6 -2 3	
							CHANNELS 3 Zrotation Xrotation Yrotation
							JOINT RightForeArm
							{
								OFFSET -3.5 -27 -1	
								CHANNELS 3 Zrotation Xrotation Yrotation
								JOINT RightHand
								{
									OFFSET -1 -27 1	
									CHANNELS 3 Zrotation Xrotation Yrotation
									End Site
									{
										OFFSET 0 -15 0
									}
								}
							}
						}
					}
					JOINT Neck
					{
						OFFSET 0 10 0	
						CHANNELS 3 Zrotation Xrotation Yrotation
						JOINT Head
						{
							OFFSET 0 12.7 3	
							CHANNELS 3 Zrotation Xrotation Yrotation
							End Site
							{
								OFFSET 0 12.7 3
							}
						}
					}
				}
			}
		}
	}
	JOINT LeftHip
	{
		OFFSET 0 0 0	
		CHANNELS 3 Zrotation Xrotation Yrotation
		JOINT LeftUpLeg
		{
			OFFSET 8.8 -6 0	
			CHANNELS 3 Zrotation Xrotation Yrotation
			JOINT LeftLeg
			{
				OFFSET 0 -39 2	
				CHANNELS 3 Zrotation Xrotation Yrotation
				JOINT LeftFoot
				{
					OFFSET 0 -43 -2	
					CHANNELS 3 Zrotation Xrotation Yrotation
					JOINT LeftFootFront
					{
						OFFSET 0 -7 8.5	
						CHANNELS 3 Zrotation Xrotation Yrotation
						End Site
						{
							OFFSET 0 -0.5 9
						}
					}
				}
				JOINT LeftHeel
				{
					OFFSET 0 -43 -2	
					CHANNELS 3 Zrotation Xrotation Yrotation
					End Site
					{
						OFFSET 0 -7.5 -5
					}
				}
			}
		}
	}
	JOINT RightHip
	{
		OFFSET 0 0 0	
		CHANNELS 3 Zrotation Xrotation Yrotation
		JOINT RightUpLeg
		{
			OFFSET -8.8 -6 0	
			CHANNELS 3 Zrotation Xrotation Yrotation
			JOINT RightLeg
			{
				OFFSET 0 -39 2	
				CHANNELS 3 Zrotation Xrotation Yrotation
				JOINT RightFoot
				{
					OFFSET 0 -43 -2	
					CHANNELS 3 Zrotation Xrotation Yrotation
					JOINT RightFootFront
					{
						OFFSET 0 -7 8.5	
						CHANNELS 3 Zrotation Xrotation Yrotation
						End Site
						{
							OFFSET 0 -0.5 9
						}
					}
				}
				JOINT RightHeel
				{
					OFFSET 0 -43 -2	
					CHANNELS 3 Zrotation Xrotation Yrotation
					End Site
					{
						OFFSET 0 -7.5 -5
					}
				}
			}
		}
	}
}
MOTION
Frames: 20
Frame Time: 0.05
2.2631 84.921 -113.6 -0 0 -0 0.498 -4.2249 -39.596 -6.8979 8.0031 12.659 -6.8979 8.0031 12.659 -5.6706 6.8288 10.558 -0 0 -0 20.02 -12.724 23.326 -39.611 -18.838 27.991 -1.0021 0.012685 -0.25647 -0 0 -0 0.63135 -4.3057 -23.981 22.423 -27.031 11.746 0.035241 0.63396 -0.073301 -0 0 -0 -0 0 -0 0.498 -4.2249 -39.596 -47.442 -19.095 132.97 -0.95706 -50.514 -128.01 -0 0 -0 1.3535e-07 -12.613 2.5319e-07 -0 0 -0 0.498 -4.2249 -39.596 -1.3515 -11.141 -13.434 32.107 -24.142 -8.8941 -0 0 -0 -0 0 -0 -0 0 -0 
-0.069803 84.824 -112.79 -0 0 -0 -0.87894 -0.96818 -37.281 -6.4619 9.0208 12.118 -6.4619 9.0208 12.118 -5.293 7.6731 10.097 -0 0 -0 19.671 -17.34 25.275 -40.479 -21.393 26.407 0.32773 0.067864 0.040109 -0 0 -0 0.5721 -6.5646 -24.72 21.343 -25.044 11.307 -0.088619 0.14382 0.85378 -0 0 -0 -0 0 -0 -0.87894 -0.96818 -37.281 -46.036 -19.784 112.59 28.7 -52.499 -96.431 -0 0 -0 -1.4163e-07 -18.336 -8.7754e-07 -0 0 -0 -0.87894 -0.96818 -37.281 2.8676 -19.097 -8.7617 23.818 -13.282 -19.837 -0 0 -0 0 0 -1.2807e-06 -0 0 -0 
-3.2738 85.361 -111.49 -0 0 -0 -1.326 0.24067 -35.681 -4.2574 7.3127 11.597 -4.2574 7.3127 11.597 -3.474 6.2031 9.6962 -0 0 -0 15.339 -10.495 20.667 -40.547 -26.375 26.75 0.3761 -0.14287 1.0802 -0 0 -0 -1.853 1.4823 -26.483 19.703 -22.26 13.596 0.17702 -0.096365 0.068922 -0 0 -0 -0 0 -0 -1.326 0.24067 -35.681 -49.564 -20.481 91.258 55.532 -44.76 -66.722 -0 0 -0 0 0 -7.4705e-07 -0 0 -0 -1.326 0.24067 -35.681 3.4823 -26.143 -1.6375 17.837 4.3411 -31.007 -0 0 -0 -0 0 1.2807e-06 -0 0 -0 
-7.3331 86.325 -109.96 -0 0 -0 -0.96136 -2.1394 -33.507 -5.3546 8.7056 12.332 -5.3546 8.7056 12.332 -4.3667 7.3936 10.291 -0 0 -0 14.769 -10.44 18.699 -41.066 -30.465 25.502 0.45663 -0.68546 0.52496 -0 0 -0 0.66267 2.0036 -30.242 18.193 -20.299 15.223 0.70415 -0.10604 0.14726 -0 0 -0 -0 0 -0 -0.96136 -2.1394 -33.507 -51.314 -14.735 86.077 60.07 -41.014 -58.221 -0 0 -0 0 0 -1.0672e-06 -0 0 -0 -0.96136 -2.1394 -33.507 1.444 -29.605 -0.31312 13.447 25.46 -25.285 -0 0 -0 0 0 -6.9369e-07 -0 0 -0 
-12.193 87.428 -108.56 -0 0 -0 -1.2604 -3.0365 -29.229 -4.8702 10.561 11.877 -4.8702 10.561 11.877 -3.9355 8.9433 9.8964 -0 0 -0 11.353 -11.775 20.312 -41.266 -32.989 23.793 0.46627 -0.43572 0.16044 -0 0 -0 -0.7979 1.715 -30.726 18.243 -18.764 14.783 -0.22493 0.012348 1.1015 -0 0 -0 -0 0 -0 -1.2604 -3.0365 -29.229 -49.496 -9.5537 86.779 59.923 -41.856 -57.012 -0 0 -0 -0 0 -0 -0 0 -0 -1.2604 -3.0365 -29.229 0.16211 -31.033 -3.0084 7.8328 40.602 -13.641 -0 0 -0 1.9279e-07 -6.2741 3.5176e-06 -0 0 -0 
-17.621 88.482 -107.69 -0 0 -0 -1.6991 -0.74164 -23.119 -2.8286 10.665 11.163 -2.8286 10.665 11.163 -2.2306 8.9986 9.3223 -0 0 -0 7.0444 -11.807 20.456 -40.534 -34.424 23.374 1.7165 0.41401 -0.94774 -0 0 -0 -3.7039 3.6709 -29.059 16.77 -17.788 12.312 -1.252 0.45601 1.5303 -0 0 -0 -0 0 -0 -1.6991 -0.74164 -23.119 -47.592 -6.628 86.329 62.469 -44.005 -52.912 -0 0 -0 0 0 -4.2689e-07 -0 0 -0 -1.6991 -0.74164 -23.119 -0.63892 -29.555 -3.5162 11.455 35.088 -17.424 -0 0 -0 8.7638e-07 -4.834 5.1767e-07 -0 0 -0 
-23.152 89.447 -107.77 -0 0 -0 -2.4098 2.267 -16.8 -1.2112 9.986 10.491 -1.2112 9.986 10.491 -0.89164 8.4057 8.7827 -0 0 -0 5.9643 -10.619 23.514 -39.385 -32.406 20.74 1.0989 0.98396 0.27211 -0 0 -0 -6.4803 5.0524 -20.964 11.927 -15.802 5.715 -2.4301 -1.2066 0.29618 -0 0 -0 -0 0 -0 -2.4098 2.267 -16.8 -31.459 -4.1595 101.47 41.979 -49.095 -76.248 -0 0 -0 -0 0 4.2689e-07 -0 0 -0 -2.4098 2.267 -16.8 -0.4829 -27.314 -1.0855 15.383 23.049 -20.975 -0 0 -0 -0 0 2.9348e-07 -0 0 -0 
-28.291 90.341 -108.89 -0 0 -0 -3.1667 3.0821 -10.007 -0.94849 10.741 9.9471 -0.94849 10.741 9.9471 -0.66833 9.0361 8.3262 -0 0 -0 6.8315 -12.083 24.565 -35.299 -30.315 21.002 -0.33107 0.22355 0.25547 -0 0 -0 -6.6423 1.4917 -13.319 2.6086 -13.146 -1.1763 0.7233 -2.4762 -3.3723 -0 0 -0 -0 0 -0 -3.1667 3.0821 -10.007 -21.148 1.0717 113.97 15.793 -47.447 -103.59 -0 0 -0 -3.6313e-06 -17.022 -1.1909e-06 -0 0 -0 -3.1667 3.0821 -10.007 1.3447 -26.628 -4.7953 12.655 16.116 -18.576 -0 0 -0 0 0 -3.2017e-07 -0 0 -0 
-32.707 91.131 -110.78 -0 0 -0 -2.0923 5.3135 -4.483 -1.4984 9.9187 10.502 -1.4984 9.9187 10.502 -1.1333 8.3527 8.7888 -0 0 -0 10.043 -10.56 21.889 -32.861 -29.203 22.63 -1.2285 -1.0065 0.12563 -0 0 -0 -6.2859 0.66623 -14.168 -2.3996 -12.768 -7.226 2.7857 -2.6122 -2.7812 -0 0 -0 -0 0 -0 -2.0923 5.3135 -4.483 -15.476 -5.1978 132.55 -5.8211 -40.948 -133.91 -0 0 -0 4.8002e-08 -23.137 2.345e-07 -0 0 -0 -2.0923 5.3135 -4.483 3.3188 -28.69 -11.289 7.7086 12.083 -11.031 -0 0 -0 0 0 -8.5377e-07 -0 0 -0 
-36.322 91.71 -112.84 -0 0 -0 -0.090423 3.91 -2.5912 -1.8061 10 11.247 -1.8061 10 11.247 -1.3815 8.427 9.4097 -0 0 -0 9.8313 -6.9189 24.154 -32.418 -29.636 20.034 -1.0929 -0.50515 0.71575 -0 0 -0 -9.45 0.80936 -19.347 -0.26373 -16.405 -10.936 1.0695 -1.7566 0.60806 -0 0 -0 -0 0 -0 -0.090423 3.91 -2.5912 -10.909 1.9589 143.22 -15.266 -21.149 -139.05 -0 0 -0 8.5037e-07 -11.327 -7.6537e-08 -0 0 -0 -0.090423 3.91 -2.5912 6.0287 -25.581 -11.368 3.3615 7.1702 -6.5854 -0 0 -0 -8.5377e-07 7.9514e-16 -1.0672e-07 -0 0 -0 
-39.216 91.98 -114.5 -0 0 -0 2.9 2.5894 -0.86264 -2.9385 10.646 11.058 -2.9385 10.646 11.058 -2.3243 8.9839 9.2333 -0 0 -0 10.558 -6.1292 30.288 -33.461 -30.275 18.283 -0.64016 -0.050208 -0.68112 -0 0 -0 -13.557 -0.88745 -23.721 4.6874 -23.196 -11.446 -1.0727 -0.52698 2.7796 -0 0 -0 -0 0 -0 2.9 2.5894 -0.86264 -13.806 5.6306 146.01 -21.182 -8.7552 -141.94 -0 0 -0 8.5549e-07 -1.2278 1.5592e-07 -0 0 -0 2.9 2.5894 -0.86264 6.7893 -21.479 -9.3295 0.014474 1.6271 -7.292 -0 0 -0 -0 0 2.1344e-07 -0 0 -0 
-41.507 91.957 -115.58 -0 0 -0 2.5527 4.3085 1.9601 -2.738 10.337 10.765 -2.738 10.337 10.765 -2.1642 8.7206 8.9924 -0 0 -0 10.124 -6.7496 32.732 -33.691 -32.628 17.915 -0.64263 0.30045 -0.89396 -0 0 -0 -18.99 -3.2474 -28.054 6.9297 -29.521 -8.7467 -0.21886 -0.086771 0.38024 -0 0 -0 -0 0 -0 2.5527 4.3085 1.9601 -20.672 7.1127 149.99 -33.364 -0.090201 -149.77 -0 0 -0 -0 0 5.3361e-08 -0 0 -0 2.5527 4.3085 1.9601 8.3661 -21.831 -8.3231 -1.8049 -1.735 -9.5299 -0 0 -0 0 0 -3.2017e-07 -0 0 -0 
-43.306 91.784 -116.12 -0 0 -0 1.4157 5.3573 4.6841 -1.8631 10.088 10.25 -1.8631 10.088 10.25 -1.4399 8.4986 8.5724 -0 0 -0 8.711 -7.6117 32.017 -32.989 -36.102 19.034 -0.99639 0.33063 -0.44344 -0 0 -0 -25.649 -5.2298 -31.055 8.2662 -35.644 -6.7111 0.90275 0.15381 -0.61586 -0 0 -0 -0 0 -0 1.4157 5.3573 4.6841 -37.175 7.4081 152.17 -52.14 1.0365 -156.31 -0 0 -0 -0 0 -0 -0 0 -0 1.4157 5.3573 4.6841 10.49 -22.144 -8.6829 -3.4989 -4.1389 -10.085 -0 0 -0 0 0 -4.2689e-07 -0 0 -0 
-44.755 91.619 -116.32 -0 0 -0 3.2385 4.6913 6.1991 -2.8614 10.432 10.57 -2.8614 10.432 10.57 -2.2687 8.8014 8.8263 -0 0 -0 10.293 -10.243 28.852 -32.779 -39.338 20.505 -0.71843 0.1407 -0.671 -0 0 -0 -29.848 -7.5586 -34.736 11.115 -40.917 -5.4204 0.3361 0.3271 0.55683 -0 0 -0 -0 0 -0 3.2385 4.6913 6.1991 -67.548 -1.6998 146.46 -75.081 -11.359 -171.66 -0 0 -0 -0 0 1.0672e-07 -0 0 -0 3.2385 4.6913 6.1991 9.9366 -20.548 -9.4274 -5.2565 -6.1409 -10.25 -0 0 -0 0 0 -2.1344e-07 -0 0 -0 
-45.939 91.53 -116.3 -0 0 -0 6.4928 2.9677 7.4018 -4.5948 11.106 10.927 -4.5948 11.106 10.927 -3.7081 9.3916 9.0988 -0 0 -0 13.117 -13.722 27.36 -34.436 -41.241 18.908 -0.47255 0.1714 -0.32958 -0 0 -0 -31.886 -10.077 -34.913 10.812 -46.517 -6.5312 0.55851 0.18833 0.0117 -0 0 -0 -0 0 -0 6.4928 2.9677 7.4018 -99.802 -14.724 120.54 -97.885 -33.135 158.94 -0 0 -0 -0 0 -0 -0 0 -0 6.4928 2.9677 7.4018 8.4512 -17.539 -10.489 -7.4027 -8.1866 -10.402 -0 0 -0 0 0 -8.5377e-07 -0 0 -0 
-46.885 91.505 -116.18 -0 0 -0 7.5756 2.903 8.5523 -5.245 10.701 10.787 -5.245 10.701 10.787 -4.2611 9.0583 8.9764 -0 0 -0 14.772 -16.045 26.959 -37.378 -42.672 15.777 -0.18878 0.048873 -0.18178 -0 0 -0 -34.058 -12.2 -33.15 10.785 -52.386 -6.7905 0.83286 0.21397 -0.18684 -0 0 -0 -0 0 -0 7.5756 2.903 8.5523 -121.56 -12.791 100.99 -121.31 -38.956 132.88 -0 0 -0 0 0 -2.1344e-07 -0 0 -0 7.5756 2.903 8.5523 8.8593 -16.728 -11.292 -9.2812 -9.6663 -9.9619 -0 0 -0 0 0 -2.1344e-07 -0 0 -0 
-47.621 91.508 -116 -0 0 -0 7.5616 3.0553 9.0638 -5.0589 9.9953 10.477 -5.0589 9.9953 10.477 -4.119 8.4612 8.7254 -0 0 -0 14.73 -17.564 26.675 -40.658 -44.143 12.1 -0.0047669 0.2665 -0.12053 -0 0 -0 -36.223 -14.438 -32.001 15.352 -58.109 -1.5034 0.15083 0.4929 0.14361 -0 0 -0 -0 0 -0 7.5616 3.0553 9.0638 -139.43 -13.694 93.788 -131.98 -30.011 114.06 -0 0 -0 -0 0 2.1344e-07 -0 0 -0 7.5616 3.0553 9.0638 9.8102 -16.188 -10.545 -10.649 -10.862 -10.754 -0 0 -0 -0 0 -0 -0 0 -0 
-48.18 91.505 -115.79 -0 0 -0 8.5901 1.9964 8.9255 -5.069 9.8004 10.137 -5.069 9.8004 10.137 -4.1341 8.2954 8.4426 -0 0 -0 14.261 -19.002 26.279 -43.606 -45.356 8.6152 0.40302 0.79458 -0.27411 -0 0 -0 -37.453 -17.346 -31.437 24.324 -62.313 9.5372 -0.26589 0.65464 -0.27103 -0 0 -0 -0 0 -0 8.5901 1.9964 8.9255 -158.46 -19.442 81.52 -135.07 -22.938 93.713 -0 0 -0 -0 0 -0 -0 0 -0 8.5901 1.9964 8.9255 9.7166 -14.067 -9.5363 -11.726 -12.137 -11.874 -0 0 -0 0 0 -2.1344e-07 -0 0 -0 
-48.587 91.474 -115.57 -0 0 -0 10.048 1.0933 8.5948 -5.8667 10.208 9.9085 -5.8667 10.208 9.9085 -4.8003 8.6458 8.2375 -0 0 -0 15.155 -22.507 25.432 -45.11 -45.534 6.3246 0.71396 1.0764 0.25449 -0 0 -0 -35.892 -22.357 -30.706 32.292 -65.451 20.646 0.56796 1.3182 -1.395 -0 0 -0 -0 0 -0 10.048 1.0933 8.5948 -172.85 -24.828 73.708 -132.1 -17.018 82.478 -0 0 -0 -0 0 2.1344e-07 -0 0 -0 10.048 1.0933 8.5948 9.2249 -12.336 -10.315 -12.389 -13.562 -11.035 -0 0 -0 -0 0 4.2689e-07 -0 0 -0 
-48.847 91.402 -115.33 -0 0 -0 10.688 0.92649 8.422 -6.6066 10.78 9.727 -6.6066 10.78 9.727 -5.4149 9.134 8.0702 -0 0 -0 15.793 -26.871 22.839 -44.237 -44.989 6.7877 1.1194 1.092 0.59521 -0 0 -0 -32.741 -27.975 -28.278 39.017 -66.915 28.7 0.58122 1.7153 -0.88322 -0 0 -0 -0 0 -0 10.688 0.92649 8.422 179.96 -26.053 74.364 -130.89 -10.243 80.027 -0 0 -0 0 0 -2.1344e-07 -0 0 -0 10.688 0.92649 8.422 9.7809 -11.427 -11.82 -13.071 -15.312 -9.3599 -0 0 -0 -0 0 -0 -0 0 -0 
